PathFileType	4	(x/y/z)	S04_PSF_T10.trc
DataRate	CameraRate	NumFrames	NumMarkers	Units	OrigDataRate	OrigDataStartFrame	OrigNumFrames
240	240	10	51	mm	240	160	425
Frame#	Time	Sternum			R.Acromium			L.Acromium			Top.Head			R.ASIS			L.ASIS			R.PSIS			L.PSIS			R.Great.Tro			L.Great.Tro			R.Iliac.Crest			L.Iliac.Crest			V.Sacral			R.Thigh.Upper.Post			R.Thigh.Lower.Ant			R.Thigh.Lower.Post			R.Thigh.Upper.Ant			R.Knee.Lat			R.Knee.Med			R.Shank.Upper.Post			R.Shank.Lower.Ant			R.Shank.Lower.Post			R.Shank.Upper.Ant			R.Ankle.Lat			R.Ankle.Med			R.Heel.Upper			R.Heel.Med			R.Heel.Lat			R.Toe.Lat			R.Toe.Med			R.Toe.Tip			L.Thigh.Upper.Post			L.Thigh.Lower.Ant			L.Thigh.Lower.Post			L.Thigh.Upper.Ant			L.Knee.Lat			L.Knee.Med			L.Shank.Upper.Post			L.Shank.Lower.Ant			L.Shank.Lower.Post			L.Shank.Upper.Ant			L.Ankle.Lat			L.Ankle.Med			L.Heel.Upper			L.Heel.Med			L.Heel.Lat			L.Toe.Lat			L.Toe.Med			L.Toe.Tip			Cervical.Spine			Back			
		X1	Y1	Z1	X2	Y2	Z2	X3	Y3	Z3	X4	Y4	Z4	X5	Y5	Z5	X6	Y6	Z6	X7	Y7	Z7	X8	Y8	Z8	X9	Y9	Z9	X10	Y10	Z10	X11	Y11	Z11	X12	Y12	Z12	X13	Y13	Z13	X14	Y14	Z14	X15	Y15	Z15	X16	Y16	Z16	X17	Y17	Z17	X18	Y18	Z18	X19	Y19	Z19	X20	Y20	Z20	X21	Y21	Z21	X22	Y22	Z22	X23	Y23	Z23	X24	Y24	Z24	X25	Y25	Z25	X26	Y26	Z26	X27	Y27	Z27	X28	Y28	Z28	X29	Y29	Z29	X30	Y30	Z30	X31	Y31	Z31	X32	Y32	Z32	X33	Y33	Z33	X34	Y34	Z34	X35	Y35	Z35	X36	Y36	Z36	X37	Y37	Z37	X38	Y38	Z38	X39	Y39	Z39	X40	Y40	Z40	X41	Y41	Z41	X42	Y42	Z42	X43	Y43	Z43	X44	Y44	Z44	X45	Y45	Z45	X46	Y46	Z46	X47	Y47	Z47	X48	Y48	Z48	X49	Y49	Z49	X50	Y50	Z50	X51	Y51	Z51	

160	0.6625	-547.43	1250.7	296	-691.21	1471.4	469.44	-678.22	1462.5	119.41	-654.66	1803	282.48	-560.82	972.16	414.8	-584.48	975.97	167.28	-783.45	1000.3	339.06	-780.61	1003.9	258.38	-632.06	894.77	489.27	-715.86	896.29	114.71	-652.09	1057.3	467.59	-683.12	1061.1	132.09	-803.29	960.58	300.33	-546.47	649.11	468.5	-452.07	599.84	421.64	-515.95	565.13	449.24	-479.96	704.32	447.63	-467.39	513.04	433.08	-507.59	497.07	313.62	-493.07	277.05	443.12	-420.59	212.31	390.65	-482.26	208.25	428.91	-432.66	281.37	414.2	-455.89	98.474	406.07	-442.49	115.57	315.98	-518.12	68.702	350.65	-506.9	40.664	319.1	-511.05	35.49	383.91	-340.37	45.823	424.77	-308.92	55.763	308.7	-247.13	83.445	353.53	-769.13	671.77	128.39	-705.65	563.46	118.56	-774.04	582.34	135.2	-705.28	653.84	109.57	-763.7	483.21	130.41	-743.03	459.58	252.92	-944.8	403.24	148.22	-949.91	293.03	138.74	-990.02	340.65	154.9	-903.33	355.14	131.53	-1068.4	188.91	164.89	-1047.6	193.53	254.24	-1137.4	217.59	215.77	-1146.5	198.39	252.49	-1156.4	194.58	191.12	-1038.2	62.911	147.64	-997.75	54.181	260.85	-954.95	39.133	209.84	-735.09	1520.9	296.54	-808.91	1262.5	271.18
161	0.66667	-541.35	1251.4	296.53	-685.28	1472	470.08	-672.51	1463.2	120.05	-649.03	1803.6	283.19	-554.69	972.86	415.57	-578.39	976.38	168.13	-777.39	1000.9	339.56	-774.5	1004.3	258.87	-626.06	895.45	489.9	-709.25	896.27	115.38	-645.95	1057.9	468.16	-676.87	1061.5	132.71	-797.22	961.07	300.9	-540.72	649.58	468.92	-446.53	600.07	421.91	-510.43	565.52	449.6	-474.11	704.62	447.97	-462.18	513.1	433.24	-502.61	497.52	313.85	-489.88	277.29	443.45	-418.3	211.83	390.57	-479.83	208.38	429.14	-429.58	281	414.17	-454.91	98.412	406.12	-441.5	115.4	316.06	-517.68	69.025	350.79	-506.69	40.974	319.19	-510.8	35.744	384	-339.87	44.797	424.75	-308.41	54.302	308.53	-246.24	81.266	353.29	-760.36	670.69	128.56	-695.8	563.07	118.08	-764.33	581.2	135.15	-696.37	653.47	109.4	-752.92	482.58	130	-731.56	458.42	252.55	-934.55	405.33	148.43	-941.47	295.23	138.44	-980.74	343.42	155.02	-893.93	356.66	131.34	-1061.5	193.12	164.48	-1040	197.08	253.74	-1129.1	224.2	215.62	-1138.8	205.54	252.58	-1149	201.75	191.15	-1035.5	65.701	147.58	-994.71	56.163	260.5	-953.05	39.024	209.31	-729.3	1521.4	297.23	-802.83	1262.9	271.83
162	0.67083	-535.31	1252.1	297.04	-679.33	1472.5	470.69	-666.8	1463.9	120.66	-643.42	1804.2	283.89	-548.62	973.55	416.32	-572.38	976.82	168.96	-771.39	1001.5	340.07	-768.46	1004.7	259.38	-620.1	896.13	490.52	-702.72	896.27	116.05	-639.85	1058.5	468.72	-670.71	1062	133.33	-791.22	961.59	301.49	-535.12	650.01	469.34	-441.15	600.25	422.2	-505.1	565.88	449.94	-468.38	704.87	448.33	-457.15	513.13	433.42	-497.79	497.95	314.07	-486.84	277.51	443.74	-416.14	211.37	390.5	-477.52	208.51	429.33	-426.65	280.64	414.13	-454.02	98.38	406.15	-440.58	115.26	316.11	-517.28	69.314	350.9	-506.49	41.256	319.27	-510.56	35.981	384.07	-339.42	43.907	424.74	-307.95	52.962	308.36	-245.45	79.264	353.05	-751.56	669.65	128.74	-685.91	562.75	117.6	-754.57	580.11	135.1	-687.44	653.17	109.22	-742.03	482	129.6	-720.01	457.36	252.21	-924.09	407.45	148.63	-932.75	297.47	138.14	-971.23	346.22	155.13	-884.32	358.22	131.17	-1054.3	197.4	164.1	-1032.3	200.68	253.26	-1120.5	230.79	215.48	-1130.7	212.65	252.65	-1141.3	208.92	191.18	-1032.5	68.715	147.48	-991.31	58.33	260.08	-950.82	39.013	208.69	-723.52	1522	297.91	-796.79	1263.3	272.47
163	0.675	-529.31	1252.9	297.53	-673.39	1473.1	471.29	-661.1	1464.6	121.26	-637.83	1804.9	284.59	-542.59	974.25	417.04	-566.45	977.29	169.76	-765.44	1002.1	340.6	-762.49	1005.2	259.9	-614.2	896.82	491.13	-696.26	896.31	116.72	-633.78	1059.2	469.26	-664.65	1062.6	133.95	-785.29	962.15	302.08	-529.67	650.42	469.76	-435.92	600.38	422.49	-499.94	566.21	450.28	-462.78	705.07	448.71	-452.29	513.14	433.6	-493.13	498.36	314.28	-483.95	277.73	443.99	-414.09	210.93	390.42	-475.34	208.64	429.49	-423.86	280.29	414.09	-453.21	98.376	406.15	-439.75	115.13	316.14	-516.94	69.569	350.99	-506.31	41.51	319.33	-510.34	36.201	384.13	-339.03	43.144	424.73	-307.55	51.737	308.18	-244.76	77.433	352.82	-742.74	668.67	128.93	-676	562.5	117.13	-744.77	579.08	135.08	-678.5	652.92	109.03	-731.04	481.5	129.22	-708.39	456.43	251.93	-913.44	409.59	148.82	-923.79	299.74	137.87	-961.52	349.04	155.24	-874.51	359.81	131.02	-1046.9	201.76	163.74	-1024.2	204.32	252.81	-1111.6	237.32	215.37	-1122.4	219.65	252.74	-1133.3	216.03	191.22	-1029.2	71.947	147.34	-987.54	60.673	259.6	-948.23	39.122	207.99	-717.74	1522.5	298.57	-790.79	1263.9	273.11
164	0.67917	-523.35	1253.6	297.98	-667.43	1473.8	471.86	-655.41	1465.4	121.84	-632.25	1805.5	285.28	-536.61	974.95	417.73	-560.59	977.8	170.53	-759.54	1002.8	341.13	-756.58	1005.7	260.42	-608.35	897.51	491.72	-689.89	896.38	117.39	-627.75	1059.9	469.8	-658.69	1063.1	134.55	-779.42	962.75	302.69	-524.37	650.81	470.17	-430.86	600.45	422.79	-494.98	566.5	450.6	-457.31	705.23	449.1	-447.63	513.12	433.79	-488.63	498.74	314.47	-481.23	277.94	444.19	-412.17	210.51	390.33	-473.3	208.77	429.61	-421.21	279.94	414.04	-452.48	98.395	406.12	-439	115.03	316.14	-516.63	69.795	351.06	-506.15	41.735	319.38	-510.15	36.405	384.18	-338.68	42.498	424.73	-307.19	50.62	308.01	-244.15	75.766	352.58	-733.92	667.75	129.13	-666.06	562.33	116.68	-734.94	578.13	135.09	-669.56	652.74	108.83	-719.98	481.08	128.86	-696.73	455.63	251.69	-902.62	411.75	149.01	-914.59	302.05	137.63	-951.61	351.88	155.35	-864.52	361.44	130.88	-1039.2	206.16	163.42	-1016	207.99	252.41	-1102.5	243.75	215.31	-1113.7	226.52	252.83	-1125	223.06	191.3	-1025.4	75.384	147.16	-983.35	63.178	259.04	-945.22	39.375	207.19	-711.96	1523.1	299.22	-784.83	1264.4	273.73
165	0.68333	-517.44	1254.4	298.41	-661.46	1474.4	472.41	-649.73	1466.1	122.39	-626.7	1806.3	285.96	-530.69	975.66	418.39	-554.8	978.33	171.25	-753.7	1003.5	341.67	-750.74	1006.2	260.96	-602.56	898.21	492.29	-683.59	896.49	118.05	-621.76	1060.6	470.32	-652.83	1063.6	135.16	-773.62	963.37	303.32	-519.24	651.17	470.56	-425.97	600.47	423.08	-490.2	566.77	450.91	-451.97	705.33	449.5	-443.14	513.07	433.99	-484.32	499.1	314.66	-478.66	278.13	444.35	-410.37	210.11	390.25	-471.4	208.9	429.68	-418.72	279.6	413.99	-451.82	98.436	406.07	-438.32	114.95	316.11	-516.37	69.993	351.1	-506	41.932	319.41	-509.97	36.592	384.21	-338.38	41.957	424.74	-306.87	49.605	307.83	-243.61	74.253	352.35	-725.08	666.89	129.35	-656.1	562.26	116.25	-725.08	577.26	135.13	-660.62	652.64	108.64	-708.85	480.75	128.51	-685.04	454.97	251.5	-891.65	413.93	149.19	-905.17	304.38	137.42	-941.52	354.74	155.46	-854.37	363.11	130.76	-1031.3	210.6	163.15	-1007.6	211.68	252.05	-1093.2	250.05	215.3	-1104.9	233.2	252.96	-1116.5	229.94	191.42	-1021.1	79.009	146.93	-978.73	65.825	258.42	-941.76	39.793	206.3	-706.18	1523.8	299.84	-778.92	1265.1	274.36
166	0.6875	-511.56	1255.1	298.8	-655.49	1475.1	472.95	-644.06	1466.9	122.93	-621.15	1807	286.63	-524.81	976.36	419.02	-549.07	978.91	171.93	-747.91	1004.2	342.21	-744.96	1006.7	261.5	-596.81	898.91	492.84	-677.37	896.65	118.7	-615.8	1061.4	470.82	-647.06	1064.2	135.75	-767.88	964.02	303.95	-514.26	651.51	470.95	-421.24	600.44	423.38	-485.6	567	451.2	-446.76	705.39	449.91	-438.85	513	434.19	-480.17	499.43	314.83	-476.26	278.31	444.46	-408.68	209.73	390.16	-469.63	209.02	429.71	-416.37	279.25	413.93	-451.23	98.494	405.99	-437.71	114.88	316.06	-516.15	70.166	351.13	-505.87	42.103	319.44	-509.8	36.765	384.24	-338.12	41.512	424.76	-306.6	48.685	307.66	-243.15	72.887	352.13	-716.23	666.12	129.58	-646.14	562.28	115.84	-715.19	576.48	135.2	-651.69	652.62	108.44	-697.67	480.53	128.19	-673.35	454.48	251.36	-880.56	416.13	149.36	-895.56	306.74	137.24	-931.26	357.6	155.57	-844.06	364.81	130.66	-1023.2	215.06	162.92	-998.92	215.38	251.74	-1083.7	256.17	215.36	-1095.7	239.64	253.12	-1107.7	236.64	191.59	-1016.4	82.799	146.64	-973.63	68.593	257.73	-937.82	40.4	205.31	-700.41	1524.5	300.45	-773.05	1265.7	274.98
167	0.69167	-505.73	1255.9	299.17	-649.5	1475.8	473.46	-638.41	1467.8	123.44	-615.62	1807.7	287.3	-518.97	977.06	419.61	-543.4	979.53	172.57	-742.17	1005	342.76	-739.25	1007.3	262.05	-591.11	899.62	493.37	-671.22	896.84	119.34	-609.88	1062.1	471.32	-641.39	1064.8	136.34	-762.21	964.71	304.59	-509.44	651.83	471.31	-416.68	600.36	423.67	-481.19	567.21	451.47	-441.68	705.41	450.32	-434.74	512.9	434.39	-476.2	499.73	315	-474.02	278.47	444.52	-407.11	209.36	390.08	-467.99	209.14	429.71	-414.17	278.92	413.88	-450.7	98.568	405.89	-437.16	114.82	315.99	-515.96	70.317	351.14	-505.75	42.25	319.45	-509.66	36.924	384.24	-337.9	41.15	424.78	-306.36	47.853	307.49	-242.76	71.657	351.92	-707.39	665.43	129.82	-636.17	562.41	115.45	-705.29	575.8	135.31	-642.77	652.69	108.25	-686.45	480.42	127.9	-661.67	454.15	251.26	-869.37	418.34	149.54	-885.78	309.13	137.1	-920.87	360.46	155.68	-833.63	366.55	130.59	-1014.7	219.51	162.76	-990.07	219.05	251.5	-1074	262.08	215.5	-1086.4	245.8	253.33	-1098.7	243.11	191.83	-1011.1	86.729	146.29	-968.05	71.459	256.97	-933.34	41.218	204.24	-694.64	1525.2	301.04	-767.22	1266.5	275.6
168	0.69583	-499.95	1256.7	299.5	-643.5	1476.6	473.95	-632.78	1468.6	123.93	-610.1	1808.5	287.95	-513.19	977.77	420.17	-537.77	980.19	173.16	-736.48	1005.7	343.31	-733.59	1007.9	262.59	-585.46	900.32	493.88	-665.13	897.09	119.96	-603.99	1062.9	471.8	-635.81	1065.4	136.92	-756.58	965.42	305.23	-504.77	652.13	471.66	-412.27	600.23	423.95	-476.96	567.39	451.72	-436.74	705.38	450.72	-430.82	512.79	434.61	-472.41	500.01	315.16	-471.94	278.62	444.54	-405.65	209.01	390.01	-466.48	209.25	429.66	-412.11	278.58	413.83	-450.23	98.654	405.78	-436.66	114.78	315.89	-515.8	70.45	351.13	-505.65	42.375	319.44	-509.53	37.072	384.24	-337.72	40.861	424.81	-306.15	47.105	307.32	-242.42	70.554	351.72	-698.54	664.83	130.08	-626.2	562.65	115.09	-695.37	575.22	135.45	-633.87	652.85	108.07	-675.21	480.44	127.62	-650.01	453.99	251.22	-858.09	420.57	149.71	-875.83	311.52	137	-910.35	363.32	155.81	-823.08	368.33	130.54	-1006.1	223.93	162.67	-981.02	222.69	251.33	-1064.2	267.74	215.74	-1076.9	251.63	253.61	-1089.5	249.31	192.14	-1005.4	90.766	145.88	-961.95	74.396	256.14	-928.29	42.262	203.07	-688.88	1525.9	301.62	-761.44	1267.2	276.22
169	0.7	-494.2	1257.4	299.8	-637.5	1477.3	474.43	-627.18	1469.4	124.4	-604.59	1809.3	288.6	-507.45	978.48	420.7	-532.18	980.89	173.71	-730.84	1006.5	343.86	-727.99	1008.5	263.14	-579.87	901.03	494.36	-659.12	897.38	120.55	-598.13	1063.7	472.26	-630.3	1066	137.48	-751.02	966.15	305.86	-500.25	652.41	471.99	-408.03	600.07	424.24	-472.9	567.55	451.97	-431.93	705.32	451.11	-427.09	512.65	434.83	-468.77	500.25	315.31	-470.02	278.76	444.52	-404.29	208.67	389.94	-465.1	209.36	429.59	-410.2	278.26	413.79	-449.82	98.751	405.65	-436.22	114.74	315.79	-515.66	70.568	351.1	-505.56	42.48	319.43	-509.42	37.209	384.24	-337.57	40.635	424.84	-305.96	46.434	307.16	-242.14	69.569	351.54	-689.69	664.33	130.36	-616.24	563	114.75	-685.44	574.76	135.63	-624.98	653.1	107.9	-663.96	480.58	127.38	-638.38	454	251.21	-846.76	422.79	149.89	-865.75	313.93	136.94	-899.72	366.15	155.95	-812.43	370.14	130.51	-997.26	228.3	162.64	-971.78	226.28	251.22	-1054.3	273.12	216.08	-1067.2	257.11	253.94	-1080.1	255.21	192.53	-999.06	94.878	145.41	-955.33	77.375	255.25	-922.65	43.541	201.81	-683.12	1526.7	302.18	-755.7	1268	276.85
